<svg width="32" height="32" viewBox="0 0 32 32" fill="none" xmlns="http://www.w3.org/2000/svg">
<circle cx="16" cy="16" r="16" fill="#030095"/>
<path d="M19.0454 8.84049C19.2563 9.05146 19.3748 9.33756 19.3748 9.63587C19.3748 9.93418 19.2563 10.2203 19.0454 10.4312L13.4766 16L19.0454 21.5687C19.2503 21.7809 19.3637 22.0651 19.3611 22.3601C19.3586 22.655 19.2402 22.9372 19.0317 23.1458C18.8231 23.3544 18.5409 23.4727 18.2459 23.4753C17.951 23.4778 17.6668 23.3644 17.4546 23.1595L11.0905 16.7954C10.8796 16.5844 10.7611 16.2983 10.7611 16C10.7611 15.7017 10.8796 15.4156 11.0905 15.2046L17.4546 8.84049C17.6656 8.62959 17.9517 8.51111 18.25 8.51111C18.5483 8.51111 18.8344 8.62959 19.0454 8.84049Z" fill="white"/>
</svg>
