<svg width="32" height="32" viewBox="0 0 32 32" fill="none" xmlns="http://www.w3.org/2000/svg">
<circle cx="16" cy="16" r="16" transform="matrix(-1 0 0 1 32 0)" fill="#030095"/>
<path d="M12.9546 8.84049C12.7437 9.05146 12.6252 9.33756 12.6252 9.63587C12.6252 9.93418 12.7437 10.2203 12.9546 10.4312L18.5234 16L12.9546 21.5687C12.7497 21.7809 12.6363 22.0651 12.6389 22.3601C12.6414 22.655 12.7598 22.9372 12.9683 23.1458C13.1769 23.3544 13.4591 23.4727 13.7541 23.4753C14.049 23.4778 14.3332 23.3644 14.5454 23.1595L20.9095 16.7954C21.1204 16.5844 21.2389 16.2983 21.2389 16C21.2389 15.7017 21.1204 15.4156 20.9095 15.2046L14.5454 8.84049C14.3344 8.62959 14.0483 8.51111 13.75 8.51111C13.4517 8.51111 13.1656 8.62959 12.9546 8.84049Z" fill="white"/>
</svg>
