<svg width="24" height="24" viewBox="0 0 24 24" fill="none" xmlns="http://www.w3.org/2000/svg">
<path d="M19.4967 7.98829L11.9997 15.2963L4.50275 7.98829C4.3688 7.85746 4.18899 7.78421 4.00175 7.78421C3.81451 7.78421 3.63469 7.85746 3.50075 7.98829C3.43589 8.05184 3.38437 8.12769 3.34919 8.2114C3.31402 8.29511 3.2959 8.38499 3.2959 8.47579C3.2959 8.56659 3.31402 8.65648 3.34919 8.74019C3.38437 8.8239 3.43589 8.89975 3.50075 8.96329L11.4762 16.7393C11.6163 16.8758 11.8042 16.9522 11.9997 16.9522C12.1953 16.9522 12.3832 16.8758 12.5232 16.7393L20.4987 8.96479C20.5641 8.9012 20.616 8.82517 20.6514 8.74118C20.6869 8.65719 20.7051 8.56695 20.7051 8.47579C20.7051 8.38463 20.6869 8.2944 20.6514 8.21041C20.616 8.12642 20.5641 8.05039 20.4987 7.98679C20.3648 7.85596 20.185 7.78271 19.9977 7.78271C19.8105 7.78271 19.6307 7.85596 19.4967 7.98679V7.98829Z" fill="#999999"/>
</svg>
