<svg width="16" height="16" viewBox="0 0 16 16" fill="none" xmlns="http://www.w3.org/2000/svg">
<path d="M3 0C2.20435 0 1.44129 0.31607 0.87868 0.87868C0.31607 1.44129 0 2.20435 0 3V13C0 13.7956 0.31607 14.5587 0.87868 15.1213C1.44129 15.6839 2.20435 16 3 16H13C13.7956 16 14.5587 15.6839 15.1213 15.1213C15.6839 14.5587 16 13.7956 16 13V3C16 2.20435 15.6839 1.44129 15.1213 0.87868C14.5587 0.31607 13.7956 0 13 0H3Z" fill="#030095"/>
<path d="M6.33329 11.4595L2.87373 7.99994L3.34212 7.53156L5.98023 10.1623L6.33379 10.5149L6.68685 10.1618L12.657 4.19163L13.1274 4.66536L6.33329 11.4595Z" stroke="white"/>
</svg>
