<svg width="16" height="16" viewBox="0 0 16 16" fill="none" xmlns="http://www.w3.org/2000/svg">
<mask id="path-1-inside-1_107_76" fill="white">
<path d="M3 0C2.20435 0 1.44129 0.31607 0.87868 0.87868C0.31607 1.44129 0 2.20435 0 3V13C0 13.7956 0.31607 14.5587 0.87868 15.1213C1.44129 15.6839 2.20435 16 3 16H13C13.7956 16 14.5587 15.6839 15.1213 15.1213C15.6839 14.5587 16 13.7956 16 13V3C16 2.20435 15.6839 1.44129 15.1213 0.87868C14.5587 0.31607 13.7956 0 13 0H3Z"/>
</mask>
<path d="M3 0L3 -1L3 0ZM0 3H-1H0ZM0 13H-1H0ZM3 -1C1.93913 -1 0.921718 -0.578573 0.171573 0.171573L1.58579 1.58579C1.96086 1.21071 2.46957 1 3 1L3 -1ZM0.171573 0.171573C-0.578573 0.921718 -1 1.93913 -1 3L1 3C1 2.46957 1.21071 1.96086 1.58579 1.58579L0.171573 0.171573ZM-1 3V13H1V3H-1ZM-1 13C-1 14.0609 -0.578573 15.0783 0.171573 15.8284L1.58579 14.4142C1.21071 14.0391 1 13.5304 1 13H-1ZM0.171573 15.8284C0.921719 16.5786 1.93913 17 3 17V15C2.46957 15 1.96086 14.7893 1.58579 14.4142L0.171573 15.8284ZM3 17H13V15H3V17ZM13 17C14.0609 17 15.0783 16.5786 15.8284 15.8284L14.4142 14.4142C14.0391 14.7893 13.5304 15 13 15V17ZM15.8284 15.8284C16.5786 15.0783 17 14.0609 17 13H15C15 13.5304 14.7893 14.0391 14.4142 14.4142L15.8284 15.8284ZM17 13V3H15V13H17ZM17 3C17 1.93913 16.5786 0.921719 15.8284 0.171573L14.4142 1.58579C14.7893 1.96086 15 2.46957 15 3H17ZM15.8284 0.171573C15.0783 -0.578573 14.0609 -1 13 -1V1C13.5304 1 14.0391 1.21071 14.4142 1.58579L15.8284 0.171573ZM13 -1H3V1H13V-1Z" fill="#E0E0E0" mask="url(#path-1-inside-1_107_76)"/>
</svg>
