<svg width="20" height="20" viewBox="0 0 20 20" fill="none" xmlns="http://www.w3.org/2000/svg">
<g clip-path="url(#clip0_107_114)">
<path d="M5.673 -0.000732422C5.85865 -0.000732422 6.0367 0.0730174 6.16797 0.204293C6.29925 0.335568 6.373 0.513616 6.373 0.699268V2.00827H13.89V0.708268C13.89 0.522616 13.9637 0.344568 14.095 0.213293C14.2263 0.0820174 14.4043 0.00826758 14.59 0.00826758C14.7757 0.00826758 14.9537 0.0820174 15.085 0.213293C15.2162 0.344568 15.29 0.522616 15.29 0.708268V2.00827H18C18.5303 2.00827 19.0388 2.21884 19.4139 2.5937C19.7889 2.96856 19.9997 3.47701 20 4.00727V18.0003C19.9997 18.5305 19.7889 19.039 19.4139 19.4138C19.0388 19.7887 18.5303 19.9993 18 19.9993H2C1.46974 19.9993 0.961184 19.7887 0.58614 19.4138C0.211096 19.039 0.00026513 18.5305 0 18.0003L0 4.00727C0.00026513 3.47701 0.211096 2.96856 0.58614 2.5937C0.961184 2.21884 1.46974 2.00827 2 2.00827H4.973V0.698268C4.97327 0.512789 5.04713 0.334998 5.17838 0.203939C5.30963 0.0728799 5.48752 -0.000732611 5.673 -0.000732422ZM1.4 7.74127V18.0003C1.4 18.0791 1.41552 18.1571 1.44567 18.2299C1.47583 18.3027 1.52002 18.3688 1.57574 18.4245C1.63145 18.4802 1.69759 18.5244 1.77039 18.5546C1.84319 18.5847 1.92121 18.6003 2 18.6003H18C18.0788 18.6003 18.1568 18.5847 18.2296 18.5546C18.3024 18.5244 18.3685 18.4802 18.4243 18.4245C18.48 18.3688 18.5242 18.3027 18.5543 18.2299C18.5845 18.1571 18.6 18.0791 18.6 18.0003V7.75527L1.4 7.74127ZM6.667 14.6183V16.2843H5V14.6183H6.667ZM10.833 14.6183V16.2843H9.167V14.6183H10.833ZM15 14.6183V16.2843H13.333V14.6183H15ZM6.667 10.6413V12.3073H5V10.6413H6.667ZM10.833 10.6413V12.3073H9.167V10.6413H10.833ZM15 10.6413V12.3073H13.333V10.6413H15ZM4.973 3.40727H2C1.92121 3.40727 1.84319 3.42279 1.77039 3.45294C1.69759 3.48309 1.63145 3.52729 1.57574 3.583C1.52002 3.63872 1.47583 3.70486 1.44567 3.77766C1.41552 3.85045 1.4 3.92847 1.4 4.00727V6.34227L18.6 6.35627V4.00727C18.6 3.92847 18.5845 3.85045 18.5543 3.77766C18.5242 3.70486 18.48 3.63872 18.4243 3.583C18.3685 3.52729 18.3024 3.48309 18.2296 3.45294C18.1568 3.42279 18.0788 3.40727 18 3.40727H15.29V4.33627C15.29 4.52192 15.2162 4.69997 15.085 4.83124C14.9537 4.96252 14.7757 5.03627 14.59 5.03627C14.4043 5.03627 14.2263 4.96252 14.095 4.83124C13.9637 4.69997 13.89 4.52192 13.89 4.33627V3.40727H6.373V4.32727C6.373 4.51292 6.29925 4.69097 6.16797 4.82224C6.0367 4.95352 5.85865 5.02727 5.673 5.02727C5.48735 5.02727 5.3093 4.95352 5.17803 4.82224C5.04675 4.69097 4.973 4.51292 4.973 4.32727V3.40727Z" fill="#999999"/>
</g>
<defs>
<clipPath id="clip0_107_114">
<rect width="20" height="20" fill="white" transform="translate(0 -0.000732422)"/>
</clipPath>
</defs>
</svg>
