<svg width="96" height="54" viewBox="0 0 96 54" fill="none" xmlns="http://www.w3.org/2000/svg">
<g clip-path="url(#clip0_22_6)">
<path d="M7.67999 7.79498H14.1234C15.8937 7.79498 17.3125 8.25058 18.3799 9.16176C19.4473 10.0599 19.981 11.3942 19.981 13.1645V14.5508C19.981 16.3211 19.4473 17.6618 18.3799 18.573C17.3125 19.4712 15.8937 19.9203 14.1234 19.9203H11.507V24.9188H7.67999V7.79498ZM13.9281 16.601C14.605 16.601 15.1452 16.4057 15.5487 16.0152C15.9653 15.6247 16.1736 15.065 16.1736 14.336V13.3793C16.1736 12.6503 15.9653 12.0906 15.5487 11.7001C15.1452 11.3096 14.605 11.1143 13.9281 11.1143H11.507V16.601H13.9281ZM21.8283 7.79498H25.6553V21.5799H32.1768V24.9188H21.8283V7.79498ZM38.1584 7.79498H42.2197L47.7064 24.9188H43.8013L42.8055 21.5604H37.5727L36.5964 24.9188H32.6718L38.1584 7.79498ZM41.8487 18.3387L40.1695 12.6763L38.5099 18.3387H41.8487ZM51.4682 19.2369L45.962 7.79498H50.0819L53.4012 15.3904L56.6226 7.79498H60.7626L55.2564 19.3931V24.9188H51.4682V19.2369ZM33.9684 31.1365H37.893L40.0408 42.598L42.5205 31.1365H46.3865L48.8858 42.598L51.0141 31.1365H54.919L51.0141 48.2408H46.9528L44.4535 37.1699L42.0324 48.2408H37.9711L33.9684 31.1365ZM56.1887 31.117H60.0157V48.2408H56.1887V31.117ZM65.8028 34.3387H61.3901V31.117H74.1011V34.3387H69.6689V48.2408H65.8028V34.3387ZM75.4658 31.117H79.2927V37.8338H84.6232V31.117H88.4502V48.2408H84.6232V41.1531H79.2927V48.2408H75.4658V31.117Z" fill="black"/>
<path d="M2.71186 2.71185H0V36.8814H2.71186V2.71185Z" fill="black"/>
<path d="M0 -1.14441e-05L0 2.71185L96 2.71185V-1.14441e-05L0 -1.14441e-05Z" fill="black"/>
<path d="M96 2.71185H93.2881V36.8814H96V2.71185Z" fill="black"/>
</g>
<defs>
<clipPath id="clip0_22_6">
<rect width="96" height="53.1525" fill="white"/>
</clipPath>
</defs>
</svg>
