<svg width="96" height="54" viewBox="0 0 96 54" fill="none" xmlns="http://www.w3.org/2000/svg">
<g clip-path="url(#clip0_41_558)">
<path d="M7.68 7.79492H14.1234C15.8937 7.79492 17.3125 8.25052 18.3799 9.1617C19.4473 10.0599 19.981 11.3941 19.981 13.1644V14.5507C19.981 16.321 19.4473 17.6618 18.3799 18.573C17.3125 19.4711 15.8937 19.9202 14.1234 19.9202H11.507V24.9187H7.68V7.79492ZM13.9281 16.6009C14.605 16.6009 15.1452 16.4056 15.5487 16.0151C15.9653 15.6246 16.1736 15.0649 16.1736 14.3359V13.3792C16.1736 12.6502 15.9653 12.0905 15.5487 11.7C15.1452 11.3095 14.605 11.1142 13.9281 11.1142H11.507V16.6009H13.9281ZM21.8283 7.79492H25.6553V21.5799H32.1768V24.9187H21.8283V7.79492ZM38.1584 7.79492H42.2197L47.7064 24.9187H43.8013L42.8055 21.5603H37.5727L36.5964 24.9187H32.6718L38.1584 7.79492ZM41.8487 18.3387L40.1695 12.6763L38.5099 18.3387H41.8487ZM51.4682 19.2368L45.962 7.79492H50.0819L53.4012 15.3903L56.6226 7.79492H60.7626L55.2564 19.393V24.9187H51.4682V19.2368ZM33.9684 31.1365H37.893L40.0408 42.5979L42.5205 31.1365H46.3866L48.8858 42.5979L51.0141 31.1365H54.9191L51.0141 48.2408H46.9528L44.4535 37.1698L42.0324 48.2408H37.9711L33.9684 31.1365ZM56.1887 31.117H60.0157V48.2408H56.1887V31.117ZM65.8028 34.3387H61.3901V31.117H74.1012V34.3387H69.6689V48.2408H65.8028V34.3387ZM75.4658 31.117H79.2927V37.8337H84.6232V31.117H88.4502V48.2408H84.6232V41.153H79.2927V48.2408H75.4658V31.117Z" fill="white"/>
<path d="M2.71186 2.71191H0V36.8814H2.71186V2.71191Z" fill="white"/>
<path d="M0 4.95911e-05L0 2.71191L96 2.71191V4.95911e-05L0 4.95911e-05Z" fill="white"/>
<path d="M96 2.71191H93.2881V36.8814H96V2.71191Z" fill="white"/>
</g>
<defs>
<clipPath id="clip0_41_558">
<rect width="96" height="53.1525" fill="white"/>
</clipPath>
</defs>
</svg>
