<svg width="24" height="24" viewBox="0 0 24 24" fill="none" xmlns="http://www.w3.org/2000/svg">
<path d="M7.38935 3C7.56572 3 7.73486 3.07006 7.85958 3.19477C7.98429 3.31949 8.05435 3.48863 8.05435 3.665V4.90855H15.1955V3.67355C15.1955 3.49718 15.2656 3.32804 15.3903 3.20332C15.515 3.07861 15.6841 3.00855 15.8605 3.00855C16.0369 3.00855 16.206 3.07861 16.3307 3.20332C16.4554 3.32804 16.5255 3.49718 16.5255 3.67355V4.90855H19.1C19.6037 4.90855 20.0869 5.1086 20.4432 5.46471C20.7995 5.82082 20.9997 6.30385 21 6.8076V20.1009C20.9997 20.6047 20.7995 21.0877 20.4432 21.4438C20.0869 21.8 19.6037 22 19.1 22H3.9C3.39625 22 2.91312 21.8 2.55683 21.4438C2.20054 21.0877 2.00025 20.6047 2 20.1009V6.8076C2.00025 6.30385 2.20054 5.82082 2.55683 5.46471C2.91312 5.1086 3.39625 4.90855 3.9 4.90855H6.72435V3.66405C6.7246 3.48785 6.79478 3.31894 6.91946 3.19444C7.04414 3.06993 7.21315 3 7.38935 3ZM3.33 10.3549V20.1009C3.33 20.1758 3.34474 20.2499 3.37339 20.3191C3.40203 20.3882 3.44402 20.4511 3.49695 20.504C3.54988 20.5569 3.61271 20.5989 3.68187 20.6276C3.75103 20.6562 3.82515 20.6709 3.9 20.6709H19.1C19.1749 20.6709 19.249 20.6562 19.3181 20.6276C19.3873 20.5989 19.4501 20.5569 19.5031 20.504C19.556 20.4511 19.598 20.3882 19.6266 20.3191C19.6553 20.2499 19.67 20.1758 19.67 20.1009V10.3682L3.33 10.3549ZM8.33365 16.8881V18.4707H6.75V16.8881H8.33365ZM12.2914 16.8881V18.4707H10.7086V16.8881H12.2914ZM16.25 16.8881V18.4707H14.6664V16.8881H16.25ZM8.33365 13.1099V14.6926H6.75V13.1099H8.33365ZM12.2914 13.1099V14.6926H10.7086V13.1099H12.2914ZM16.25 13.1099V14.6926H14.6664V13.1099H16.25ZM6.72435 6.2376H3.9C3.82515 6.2376 3.75103 6.25234 3.68187 6.28099C3.61271 6.30963 3.54988 6.35162 3.49695 6.40455C3.44402 6.45748 3.40203 6.52031 3.37339 6.58947C3.34474 6.65863 3.33 6.73275 3.33 6.8076V9.02585L19.67 9.03915V6.8076C19.67 6.73275 19.6553 6.65863 19.6266 6.58947C19.598 6.52031 19.556 6.45748 19.5031 6.40455C19.4501 6.35162 19.3873 6.30963 19.3181 6.28099C19.249 6.25234 19.1749 6.2376 19.1 6.2376H16.5255V7.12015C16.5255 7.29652 16.4554 7.46566 16.3307 7.59038C16.206 7.71509 16.0369 7.78515 15.8605 7.78515C15.6841 7.78515 15.515 7.71509 15.3903 7.59038C15.2656 7.46566 15.1955 7.29652 15.1955 7.12015V6.2376H8.05435V7.1116C8.05435 7.28797 7.98429 7.45711 7.85958 7.58183C7.73486 7.70654 7.56572 7.7766 7.38935 7.7766C7.21298 7.7766 7.04384 7.70654 6.91912 7.58183C6.79441 7.45711 6.72435 7.28797 6.72435 7.1116V6.2376Z" fill="#333333"/>
</svg>
