<svg width="24" height="24" viewBox="0 0 24 24" fill="none" xmlns="http://www.w3.org/2000/svg">
<path d="M11.9999 2.40002C9.45382 2.40002 7.01203 3.41145 5.21168 5.2118C3.41133 7.01215 2.3999 9.45394 2.3999 12C2.3999 14.5461 3.41133 16.9879 5.21168 18.7882C7.01203 20.5886 9.45382 21.6 11.9999 21.6C14.546 21.6 16.9878 20.5886 18.7881 18.7882C20.5885 16.9879 21.5999 14.5461 21.5999 12C21.5999 9.45394 20.5885 7.01215 18.7881 5.2118C16.9878 3.41145 14.546 2.40002 11.9999 2.40002ZM8.5103 4.35602L11.4023 6.04322V8.08322L8.0795 10.4256L6.2075 9.74522L5.4563 6.73082C6.27644 5.71318 7.32197 4.90017 8.5103 4.35602ZM3.6407 12.8304L5.8331 10.8864L7.6883 11.5596L8.9423 15.5076L8.0819 16.7952H5.1023C4.2833 15.6208 3.77999 14.2555 3.6407 12.8304ZM10.0475 20.172L9.0695 17.4768L9.9215 16.2012H14.0819L14.9351 17.4768L13.9571 20.1708C12.672 20.4776 11.3326 20.4788 10.0475 20.172ZM18.8975 16.794H15.9239L15.0599 15.504L16.2899 11.5596L18.1703 10.8828L20.3591 12.8292C20.2198 14.2543 19.7165 15.6196 18.8975 16.794ZM18.5495 6.73802L17.7983 9.74162L15.8975 10.4256L12.6011 8.08322V6.04322L15.4919 4.35602C16.6823 4.90173 17.7292 5.71729 18.5495 6.73802Z" fill="#555555"/>
</svg>
