<svg width="100" height="100" viewBox="0 0 100 100" fill="none" xmlns="http://www.w3.org/2000/svg">
<g clip-path="url(#clip0_95_562)">
<path d="M88.4525 81.8922C93.5852 75.7218 97.155 68.407 98.8599 60.5666C100.565 52.7261 100.355 44.5907 98.2476 36.8485C96.1403 29.1063 92.1978 21.9851 86.7536 16.0873C81.3093 10.1896 74.5235 5.68872 66.9702 2.96555C59.4169 0.242372 51.3183 -0.623019 43.3594 0.442582C35.4006 1.50818 27.8157 4.47343 21.2463 9.08747C14.677 13.7015 9.31647 19.8286 5.61827 26.9505C1.92008 34.0723 -0.00701427 41.9794 1.91839e-05 50.0027C0.00271816 61.6665 4.11633 72.9567 11.619 81.8922L11.5476 81.9529C11.7977 82.2529 12.0837 82.51 12.341 82.8064C12.6626 83.1742 13.0093 83.5206 13.3417 83.8777C14.3424 84.9633 15.3717 86.0061 16.4511 86.9845C16.7799 87.2845 17.1194 87.563 17.4518 87.8487C18.5954 88.8343 19.7713 89.7699 20.99 90.6413C21.1473 90.7484 21.2902 90.8877 21.4475 90.9984V90.9555C29.8181 96.8412 39.8038 100 50.0393 100C60.2748 100 70.2605 96.8412 78.6312 90.9555V90.9984C78.7884 90.8877 78.9278 90.7484 79.0887 90.6413C80.3038 89.7664 81.4832 88.8343 82.6269 87.8487C82.9593 87.563 83.2988 87.2809 83.6276 86.9845C84.707 86.0025 85.7363 84.9633 86.737 83.8777C87.0694 83.5206 87.4125 83.1742 87.7377 82.8064C87.9914 82.51 88.2809 82.2529 88.5311 81.9493L88.4525 81.8922ZM50.0358 21.4344C53.2167 21.4344 56.3261 22.3768 58.971 24.1426C61.6158 25.9083 63.6772 28.4181 64.8944 31.3545C66.1117 34.2908 66.4302 37.5219 65.8096 40.6391C65.1891 43.7563 63.6573 46.6197 61.4081 48.8671C59.1589 51.1145 56.2932 52.645 53.1734 53.265C50.0536 53.8851 46.8199 53.5668 43.8811 52.3506C40.9423 51.1343 38.4305 49.0746 36.6633 46.4319C34.8961 43.7893 33.9528 40.6824 33.9528 37.5041C33.9528 33.2421 35.6473 29.1547 38.6634 26.1411C41.6796 23.1274 45.7703 21.4344 50.0358 21.4344ZM21.4689 81.8922C21.5309 77.2033 23.438 72.7273 26.7776 69.4326C30.1171 66.1379 34.6207 64.2893 39.3138 64.2869H60.7577C65.4509 64.2893 69.9544 66.1379 73.294 69.4326C76.6335 72.7273 78.5406 77.2033 78.6026 81.8922C70.7643 88.9498 60.5871 92.8556 50.0358 92.8556C39.4844 92.8556 29.3072 88.9498 21.4689 81.8922Z" fill="#0D0D0D"/>
</g>
<defs>
<clipPath id="clip0_95_562">
<rect width="100" height="100" fill="white"/>
</clipPath>
</defs>
</svg>
