<svg width="100" height="100" viewBox="0 0 100 100" fill="none" xmlns="http://www.w3.org/2000/svg">
<path d="M20.397 12.8128C19.6864 12.7976 18.9962 13.0509 18.4642 13.5224C17.2911 14.5586 17.1802 16.3495 18.2164 17.5227C18.903 18.2999 19.9205 18.6078 20.8705 18.4277L29.9077 28.6581L22.0369 35.6109L25.8163 39.8891C27.3303 36.5503 29.2936 33.7197 31.6642 31.35L32.7439 37.0044C36.6645 36.0216 40.5305 35.3539 44.3636 34.993L40.6273 30.7633L34.5867 28.8128C37.2613 26.7972 40.3264 25.2238 43.7461 24.0513L39.9664 19.7724L32.0961 26.7249L23.0461 16.4795C23.3258 15.5678 23.1425 14.5374 22.4649 13.7702C22.2055 13.4758 21.8877 13.2386 21.5316 13.0738C21.1756 12.909 20.7892 12.82 20.3969 12.8127L20.397 12.8128ZM80.4591 12.8128C80.0669 12.8202 79.6805 12.9092 79.3246 13.074C78.9687 13.2388 78.6509 13.4759 78.3916 13.7702C77.7137 14.5374 77.53 15.568 77.8098 16.48L68.7598 26.725L60.8895 19.7724L57.1102 24.0513C60.5295 25.2238 63.5945 26.797 66.2695 28.8125L60.2289 30.7633L56.5953 34.8764C60.4563 35.1675 64.3089 35.768 68.1763 36.667L69.1916 31.3499C71.5623 33.7195 73.5259 36.5502 75.04 39.8889L78.8189 35.6108L70.9483 28.658L79.9855 18.4275C80.9355 18.6077 81.9531 18.2997 82.6397 17.5225C83.6756 16.3494 83.5647 14.5584 82.3919 13.5222C81.8599 13.0508 81.1697 12.7974 80.4591 12.8127V12.8128ZM51.3302 37.58C45.1489 37.5647 38.9134 38.3966 32.4813 40.0948C32.1616 54.2273 37.8694 72.8058 50.9922 80.705C63.6945 73.0284 70.1175 54.1578 69.8284 40.0934C63.6175 38.4534 57.4988 37.5953 51.33 37.58H51.3302ZM33.0214 61.5644L19.4486 76.9297L17.5424 86.9131L27.2142 83.7891L37.9158 71.6742C35.9064 68.5323 34.2836 65.107 33.0214 61.5644ZM68.6781 62.5191C67.3203 65.9938 65.6192 69.3369 63.5678 72.385L73.6417 83.7891L83.3133 86.9131L81.407 76.9297L68.678 62.5188L68.6781 62.5191Z" fill="black"/>
</svg>
