<svg width="16" height="16" viewBox="0 0 16 16" fill="none" xmlns="http://www.w3.org/2000/svg">
<path d="M14.968 14.6977H6.77742L13.4754 7.99963L13.4759 7.99931L13.4763 7.9989L15.6187 5.85636C15.7396 5.73551 15.8355 5.59203 15.9009 5.43413C15.9663 5.27622 16 5.10697 16 4.93605C16 4.76512 15.9663 4.59587 15.9009 4.43796C15.8355 4.28005 15.7397 4.13656 15.6188 4.0157L11.9836 0.380423C11.7393 0.136791 11.4083 -1.52479e-05 11.0633 1.27469e-09C10.7182 1.52505e-05 10.3873 0.13685 10.1429 0.380504L0.381196 10.1423C0.254775 10.2686 0.155822 10.4198 0.0905402 10.5862C0.0838696 10.6024 0.0782567 10.619 0.0728877 10.6356C0.0248937 10.7728 0.000256236 10.9172 0 11.0626V14.6977C0.000387559 15.0428 0.137641 15.3737 0.381648 15.6177C0.625655 15.8617 0.956489 15.9989 1.30157 15.9993H14.968C15.1406 15.9993 15.3061 15.9307 15.4282 15.8087C15.5502 15.6867 15.6188 15.5211 15.6188 15.3485C15.6188 15.1759 15.5502 15.0104 15.4282 14.8884C15.3061 14.7663 15.1406 14.6977 14.968 14.6977ZM1.57115 10.793L8.46019 3.90401L12.0953 7.53912L5.20627 14.4282L1.57115 10.793ZM11.0633 1.30079L14.6984 4.93599L13.0157 6.61875L9.38056 2.98364L11.0633 1.30079ZM1.30157 12.3642L3.63511 14.6977H1.30157V12.3642Z" fill="#999999"/>
</svg>
