<svg width="36" height="36" viewBox="0 0 36 36" fill="none" xmlns="http://www.w3.org/2000/svg">
<rect width="36" height="36" fill="white"/>
<g clip-path="url(#clip0_95_132)">
<path d="M35.1586 18.3368C35.1586 16.8619 35.0389 15.7856 34.7799 14.6694H17.938V21.3264H27.8238C27.6246 22.9808 26.5483 25.4722 24.1565 27.1463L24.123 27.3692L29.4481 31.4945L29.817 31.5313C33.2053 28.4021 35.1586 23.7979 35.1586 18.3368Z" fill="#4285F4"/>
<path d="M17.9384 35.8763C22.7816 35.8763 26.8476 34.2818 29.8174 31.5313L24.1569 27.1463C22.6422 28.2027 20.6091 28.9402 17.9384 28.9402C13.1948 28.9402 9.16867 25.811 7.73348 21.486L7.52312 21.5038L1.98599 25.7891L1.91357 25.9904C4.86338 31.8501 10.9225 35.8763 17.9384 35.8763Z" fill="#34A853"/>
<path d="M7.73327 21.486C7.35458 20.3698 7.13542 19.1739 7.13542 17.9382C7.13542 16.7024 7.35458 15.5065 7.71334 14.3904L7.70331 14.1527L2.09679 9.7986L1.91336 9.88585C0.697603 12.3175 0 15.0481 0 17.9382C0 20.8282 0.697603 23.5587 1.91336 25.9904L7.73327 21.486Z" fill="#FBBC05"/>
<path d="M17.9384 6.93605C21.3067 6.93605 23.5788 8.39102 24.8744 9.60692L29.937 4.66392C26.8278 1.77389 22.7816 0 17.9384 0C10.9225 0 4.86338 4.02609 1.91357 9.88585L7.71356 14.3904C9.16867 10.0653 13.1948 6.93605 17.9384 6.93605Z" fill="#EB4335"/>
</g>
<defs>
<clipPath id="clip0_95_132">
<rect width="35.1756" height="36" fill="white"/>
</clipPath>
</defs>
</svg>
