<svg width="60" height="60" viewBox="0 0 60 60" fill="none" xmlns="http://www.w3.org/2000/svg">
<circle cx="30" cy="30" r="30" fill="#777777"/>
<path d="M40.4683 28.6985L31.3017 19.5318C31.1273 19.3649 30.9217 19.2341 30.6967 19.1468C30.2503 18.9634 29.7497 18.9634 29.3033 19.1468C29.0783 19.2341 28.8727 19.3649 28.6983 19.5318L19.5317 28.6985C19.3607 28.8694 19.2251 29.0723 19.1326 29.2957C19.0401 29.519 18.9925 29.7584 18.9925 30.0001C18.9925 30.4884 19.1864 30.9566 19.5317 31.3018C19.8769 31.647 20.3451 31.841 20.8333 31.841C21.3215 31.841 21.7898 31.647 22.135 31.3018L28.1667 25.2518V39.1668C28.1667 39.653 28.3598 40.1193 28.7036 40.4632C29.0474 40.807 29.5138 41.0001 30 41.0001C30.4862 41.0001 30.9525 40.807 31.2964 40.4632C31.6402 40.1193 31.8333 39.653 31.8333 39.1668V25.2518L37.865 31.3018C38.0354 31.4736 38.2382 31.61 38.4616 31.7031C38.685 31.7962 38.9246 31.8441 39.1667 31.8441C39.4087 31.8441 39.6483 31.7962 39.8717 31.7031C40.0951 31.61 40.2979 31.4736 40.4683 31.3018C40.6402 31.1314 40.7766 30.9286 40.8696 30.7052C40.9627 30.4818 41.0106 30.2422 41.0106 30.0001C41.0106 29.7581 40.9627 29.5185 40.8696 29.2951C40.7766 29.0717 40.6402 28.8689 40.4683 28.6985Z" fill="white"/>
</svg>
